<svg width="18" height="18" viewBox="0 0 18 18" fill="none" xmlns="http://www.w3.org/2000/svg">
<path d="M4.38225 3.42601C5.60696 2.20131 7.26801 1.51328 9 1.51328C10.732 1.51328 12.393 2.20131 13.6178 3.42601C14.8425 4.65071 15.5305 6.31177 15.5305 8.04376C15.5305 9.77575 14.8425 11.4368 13.6178 12.6615L12.7275 13.542C12.0713 14.1855 11.22 15.0135 10.173 16.026C9.85832 16.3303 9.43773 16.5004 9 16.5004C8.56228 16.5004 8.14168 16.3303 7.827 16.026L5.20875 13.479C4.87875 13.1558 4.60425 12.8835 4.38225 12.6615C3.77581 12.0551 3.29476 11.3352 2.96655 10.5429C2.63835 9.75057 2.46942 8.90136 2.46942 8.04376C2.46942 7.18616 2.63835 6.33695 2.96655 5.54463C3.29476 4.75232 3.77581 4.03241 4.38225 3.42601ZM12.822 4.22101C12.32 3.71905 11.724 3.32088 11.0681 3.04924C10.4122 2.7776 9.70928 2.63781 8.99936 2.63784C8.28945 2.63787 7.58649 2.77774 6.93063 3.04944C6.27476 3.32115 5.67884 3.71937 5.17688 4.22138C4.67492 4.7234 4.27675 5.31936 4.00511 5.97525C3.73347 6.63114 3.59367 7.33411 3.59371 8.04402C3.59374 8.75394 3.73361 9.4569 4.00531 10.1128C4.27702 10.7686 4.67524 11.3645 5.17725 11.8665L6.29325 12.9675C6.90675 13.5683 7.67925 14.3183 8.60925 15.2175C8.71412 15.3188 8.85422 15.3754 9 15.3754C9.14579 15.3754 9.28588 15.3188 9.39075 15.2175L11.937 12.7425C12.2895 12.3968 12.5843 12.105 12.822 11.8665C13.8356 10.8528 14.4051 9.47803 14.4051 8.04451C14.4051 6.61099 13.8356 5.23618 12.822 4.22251V4.22101ZM9 5.99926C9.29567 5.99926 9.58845 6.0575 9.86162 6.17064C10.1348 6.28379 10.383 6.44964 10.5921 6.65871C10.8011 6.86778 10.967 7.11598 11.0801 7.38915C11.1933 7.66231 11.2515 7.95509 11.2515 8.25076C11.2515 8.54643 11.1933 8.83921 11.0801 9.11237C10.967 9.38554 10.8011 9.63374 10.5921 9.84281C10.383 10.0519 10.1348 10.2177 9.86162 10.3309C9.58845 10.444 9.29567 10.5023 9 10.5023C8.41008 10.4915 7.84796 10.2496 7.43458 9.82859C7.0212 9.4076 6.78959 8.84115 6.78959 8.25113C6.78959 7.66112 7.0212 7.09467 7.43458 6.67368C7.84796 6.25268 8.41008 6.01078 9 6.00001V5.99926ZM9 7.12426C8.70124 7.12426 8.41471 7.24294 8.20345 7.4542C7.99219 7.66546 7.8735 7.95199 7.8735 8.25076C7.8735 8.54953 7.99219 8.83606 8.20345 9.04732C8.41471 9.25858 8.70124 9.37726 9 9.37726C9.29364 9.36968 9.5727 9.24771 9.77771 9.03735C9.98271 8.82698 10.0974 8.54487 10.0974 8.25113C10.0974 7.9574 9.98271 7.67529 9.77771 7.46492C9.5727 7.25456 9.29364 7.13259 9 7.12501V7.12426Z" fill="#5ECB71"/>
</svg>
